<mxfile host="Electron" agent="Mozilla/5.0 (Macintosh; Intel Mac OS X 10_15_7) AppleWebKit/537.36 (KHTML, like Gecko) draw.io/26.0.16 Chrome/132.0.6834.196 Electron/34.2.0 Safari/537.36" version="26.0.16">
  <diagram name="第 1 页" id="hJObz6MQkuNjEbWugFrw">
    <mxGraphModel dx="2139" dy="2040" grid="1" gridSize="10" guides="1" tooltips="1" connect="1" arrows="1" fold="1" page="1" pageScale="1" pageWidth="827" pageHeight="1169" math="0" shadow="0">
      <root>
        <mxCell id="0" />
        <mxCell id="1" parent="0" />
        <mxCell id="VjPRYB1g1QLdpqp4aKT3-3" value="" style="edgeStyle=orthogonalEdgeStyle;rounded=0;orthogonalLoop=1;jettySize=auto;html=1;" parent="1" source="VjPRYB1g1QLdpqp4aKT3-1" target="VjPRYB1g1QLdpqp4aKT3-2" edge="1">
          <mxGeometry relative="1" as="geometry" />
        </mxCell>
        <mxCell id="VjPRYB1g1QLdpqp4aKT3-5" value="" style="edgeStyle=orthogonalEdgeStyle;rounded=0;orthogonalLoop=1;jettySize=auto;html=1;" parent="1" source="VjPRYB1g1QLdpqp4aKT3-1" target="VjPRYB1g1QLdpqp4aKT3-4" edge="1">
          <mxGeometry relative="1" as="geometry" />
        </mxCell>
        <mxCell id="VjPRYB1g1QLdpqp4aKT3-7" value="" style="edgeStyle=orthogonalEdgeStyle;rounded=0;orthogonalLoop=1;jettySize=auto;html=1;" parent="1" source="VjPRYB1g1QLdpqp4aKT3-1" target="VjPRYB1g1QLdpqp4aKT3-6" edge="1">
          <mxGeometry relative="1" as="geometry" />
        </mxCell>
        <mxCell id="VjPRYB1g1QLdpqp4aKT3-9" value="" style="edgeStyle=orthogonalEdgeStyle;rounded=0;orthogonalLoop=1;jettySize=auto;html=1;" parent="1" source="VjPRYB1g1QLdpqp4aKT3-1" target="VjPRYB1g1QLdpqp4aKT3-8" edge="1">
          <mxGeometry relative="1" as="geometry" />
        </mxCell>
        <mxCell id="VjPRYB1g1QLdpqp4aKT3-33" style="edgeStyle=orthogonalEdgeStyle;rounded=0;orthogonalLoop=1;jettySize=auto;html=1;entryX=0;entryY=0.5;entryDx=0;entryDy=0;" parent="1" source="VjPRYB1g1QLdpqp4aKT3-1" target="VjPRYB1g1QLdpqp4aKT3-32" edge="1">
          <mxGeometry relative="1" as="geometry" />
        </mxCell>
        <mxCell id="VjPRYB1g1QLdpqp4aKT3-35" style="edgeStyle=orthogonalEdgeStyle;rounded=0;orthogonalLoop=1;jettySize=auto;html=1;" parent="1" source="VjPRYB1g1QLdpqp4aKT3-1" target="VjPRYB1g1QLdpqp4aKT3-34" edge="1">
          <mxGeometry relative="1" as="geometry" />
        </mxCell>
        <mxCell id="VjPRYB1g1QLdpqp4aKT3-1" value="game" style="rounded=0;whiteSpace=wrap;html=1;" parent="1" vertex="1">
          <mxGeometry x="354" y="90" width="120" height="60" as="geometry" />
        </mxCell>
        <mxCell id="VjPRYB1g1QLdpqp4aKT3-20" value="" style="edgeStyle=orthogonalEdgeStyle;rounded=0;orthogonalLoop=1;jettySize=auto;html=1;" parent="1" source="VjPRYB1g1QLdpqp4aKT3-2" target="VjPRYB1g1QLdpqp4aKT3-19" edge="1">
          <mxGeometry relative="1" as="geometry" />
        </mxCell>
        <mxCell id="VjPRYB1g1QLdpqp4aKT3-37" style="edgeStyle=orthogonalEdgeStyle;rounded=0;orthogonalLoop=1;jettySize=auto;html=1;" parent="1" source="VjPRYB1g1QLdpqp4aKT3-2" target="VjPRYB1g1QLdpqp4aKT3-36" edge="1">
          <mxGeometry relative="1" as="geometry" />
        </mxCell>
        <mxCell id="VjPRYB1g1QLdpqp4aKT3-2" value="map" style="rounded=0;whiteSpace=wrap;html=1;" parent="1" vertex="1">
          <mxGeometry x="354" y="230" width="120" height="60" as="geometry" />
        </mxCell>
        <mxCell id="VjPRYB1g1QLdpqp4aKT3-11" value="" style="edgeStyle=orthogonalEdgeStyle;rounded=0;orthogonalLoop=1;jettySize=auto;html=1;" parent="1" source="VjPRYB1g1QLdpqp4aKT3-4" target="VjPRYB1g1QLdpqp4aKT3-10" edge="1">
          <mxGeometry relative="1" as="geometry" />
        </mxCell>
        <mxCell id="VjPRYB1g1QLdpqp4aKT3-22" style="edgeStyle=orthogonalEdgeStyle;rounded=0;orthogonalLoop=1;jettySize=auto;html=1;" parent="1" source="VjPRYB1g1QLdpqp4aKT3-4" target="VjPRYB1g1QLdpqp4aKT3-21" edge="1">
          <mxGeometry relative="1" as="geometry" />
        </mxCell>
        <mxCell id="VjPRYB1g1QLdpqp4aKT3-24" style="edgeStyle=orthogonalEdgeStyle;rounded=0;orthogonalLoop=1;jettySize=auto;html=1;" parent="1" source="VjPRYB1g1QLdpqp4aKT3-4" target="VjPRYB1g1QLdpqp4aKT3-23" edge="1">
          <mxGeometry relative="1" as="geometry" />
        </mxCell>
        <mxCell id="VjPRYB1g1QLdpqp4aKT3-26" value="" style="edgeStyle=orthogonalEdgeStyle;rounded=0;orthogonalLoop=1;jettySize=auto;html=1;" parent="1" source="VjPRYB1g1QLdpqp4aKT3-4" target="VjPRYB1g1QLdpqp4aKT3-25" edge="1">
          <mxGeometry relative="1" as="geometry" />
        </mxCell>
        <mxCell id="VjPRYB1g1QLdpqp4aKT3-4" value="character" style="rounded=0;whiteSpace=wrap;html=1;" parent="1" vertex="1">
          <mxGeometry x="60" y="210" width="120" height="60" as="geometry" />
        </mxCell>
        <mxCell id="VjPRYB1g1QLdpqp4aKT3-13" value="" style="edgeStyle=orthogonalEdgeStyle;rounded=0;orthogonalLoop=1;jettySize=auto;html=1;" parent="1" source="VjPRYB1g1QLdpqp4aKT3-6" target="VjPRYB1g1QLdpqp4aKT3-12" edge="1">
          <mxGeometry relative="1" as="geometry" />
        </mxCell>
        <mxCell id="VjPRYB1g1QLdpqp4aKT3-14" value="" style="edgeStyle=orthogonalEdgeStyle;rounded=0;orthogonalLoop=1;jettySize=auto;html=1;" parent="1" source="VjPRYB1g1QLdpqp4aKT3-6" target="VjPRYB1g1QLdpqp4aKT3-12" edge="1">
          <mxGeometry relative="1" as="geometry" />
        </mxCell>
        <mxCell id="VjPRYB1g1QLdpqp4aKT3-16" value="" style="edgeStyle=orthogonalEdgeStyle;rounded=0;orthogonalLoop=1;jettySize=auto;html=1;" parent="1" source="VjPRYB1g1QLdpqp4aKT3-6" target="VjPRYB1g1QLdpqp4aKT3-12" edge="1">
          <mxGeometry relative="1" as="geometry" />
        </mxCell>
        <mxCell id="VjPRYB1g1QLdpqp4aKT3-18" style="edgeStyle=orthogonalEdgeStyle;rounded=0;orthogonalLoop=1;jettySize=auto;html=1;" parent="1" source="VjPRYB1g1QLdpqp4aKT3-6" target="VjPRYB1g1QLdpqp4aKT3-17" edge="1">
          <mxGeometry relative="1" as="geometry" />
        </mxCell>
        <mxCell id="VjPRYB1g1QLdpqp4aKT3-28" value="" style="edgeStyle=orthogonalEdgeStyle;rounded=0;orthogonalLoop=1;jettySize=auto;html=1;" parent="1" source="VjPRYB1g1QLdpqp4aKT3-6" target="VjPRYB1g1QLdpqp4aKT3-27" edge="1">
          <mxGeometry relative="1" as="geometry" />
        </mxCell>
        <mxCell id="VjPRYB1g1QLdpqp4aKT3-31" style="edgeStyle=orthogonalEdgeStyle;rounded=0;orthogonalLoop=1;jettySize=auto;html=1;" parent="1" source="VjPRYB1g1QLdpqp4aKT3-6" target="VjPRYB1g1QLdpqp4aKT3-30" edge="1">
          <mxGeometry relative="1" as="geometry" />
        </mxCell>
        <mxCell id="VjPRYB1g1QLdpqp4aKT3-6" value="card" style="whiteSpace=wrap;html=1;rounded=0;" parent="1" vertex="1">
          <mxGeometry x="600" y="230" width="120" height="60" as="geometry" />
        </mxCell>
        <mxCell id="VjPRYB1g1QLdpqp4aKT3-8" value="resource" style="whiteSpace=wrap;html=1;rounded=0;" parent="1" vertex="1">
          <mxGeometry x="354" y="-80" width="120" height="60" as="geometry" />
        </mxCell>
        <mxCell id="VjPRYB1g1QLdpqp4aKT3-10" value="move" style="whiteSpace=wrap;html=1;rounded=0;" parent="1" vertex="1">
          <mxGeometry x="-40" y="340" width="120" height="60" as="geometry" />
        </mxCell>
        <mxCell id="VjPRYB1g1QLdpqp4aKT3-12" value="draw card" style="whiteSpace=wrap;html=1;rounded=0;" parent="1" vertex="1">
          <mxGeometry x="510" y="330" width="120" height="60" as="geometry" />
        </mxCell>
        <mxCell id="VjPRYB1g1QLdpqp4aKT3-17" value="use card" style="rounded=0;whiteSpace=wrap;html=1;" parent="1" vertex="1">
          <mxGeometry x="690" y="330" width="120" height="60" as="geometry" />
        </mxCell>
        <mxCell id="VjPRYB1g1QLdpqp4aKT3-19" value="land sink" style="whiteSpace=wrap;html=1;rounded=0;" parent="1" vertex="1">
          <mxGeometry x="280" y="340" width="120" height="60" as="geometry" />
        </mxCell>
        <mxCell id="VjPRYB1g1QLdpqp4aKT3-21" value="shore up" style="rounded=0;whiteSpace=wrap;html=1;" parent="1" vertex="1">
          <mxGeometry x="60" y="410" width="120" height="60" as="geometry" />
        </mxCell>
        <mxCell id="VjPRYB1g1QLdpqp4aKT3-23" value="give card" style="rounded=0;whiteSpace=wrap;html=1;" parent="1" vertex="1">
          <mxGeometry x="150" y="340" width="120" height="60" as="geometry" />
        </mxCell>
        <mxCell id="VjPRYB1g1QLdpqp4aKT3-25" value="abandon a round" style="whiteSpace=wrap;html=1;rounded=0;" parent="1" vertex="1">
          <mxGeometry x="-140" y="210" width="120" height="60" as="geometry" />
        </mxCell>
        <mxCell id="VjPRYB1g1QLdpqp4aKT3-27" value="reshuffle the tile" style="whiteSpace=wrap;html=1;rounded=0;" parent="1" vertex="1">
          <mxGeometry x="800" y="230" width="120" height="60" as="geometry" />
        </mxCell>
        <mxCell id="VjPRYB1g1QLdpqp4aKT3-30" value="capture treasure" style="rounded=0;whiteSpace=wrap;html=1;" parent="1" vertex="1">
          <mxGeometry x="600" y="420" width="120" height="60" as="geometry" />
        </mxCell>
        <mxCell id="VjPRYB1g1QLdpqp4aKT3-32" value="wining condition" style="rounded=0;whiteSpace=wrap;html=1;" parent="1" vertex="1">
          <mxGeometry x="640" y="-20" width="120" height="60" as="geometry" />
        </mxCell>
        <mxCell id="VjPRYB1g1QLdpqp4aKT3-34" value="losing condition" style="rounded=0;whiteSpace=wrap;html=1;" parent="1" vertex="1">
          <mxGeometry x="110" y="-20" width="120" height="60" as="geometry" />
        </mxCell>
        <mxCell id="VjPRYB1g1QLdpqp4aKT3-36" value="water level rise" style="rounded=0;whiteSpace=wrap;html=1;" parent="1" vertex="1">
          <mxGeometry x="354" y="430" width="120" height="60" as="geometry" />
        </mxCell>
        <mxCell id="eDjvxQ4qI4vpgXlW1Nu9-4" value="" style="edgeStyle=orthogonalEdgeStyle;rounded=0;orthogonalLoop=1;jettySize=auto;html=1;" edge="1" parent="1" source="eDjvxQ4qI4vpgXlW1Nu9-2" target="eDjvxQ4qI4vpgXlW1Nu9-3">
          <mxGeometry relative="1" as="geometry" />
        </mxCell>
        <mxCell id="eDjvxQ4qI4vpgXlW1Nu9-6" value="" style="edgeStyle=orthogonalEdgeStyle;rounded=0;orthogonalLoop=1;jettySize=auto;html=1;" edge="1" parent="1" source="eDjvxQ4qI4vpgXlW1Nu9-2" target="eDjvxQ4qI4vpgXlW1Nu9-5">
          <mxGeometry relative="1" as="geometry" />
        </mxCell>
        <mxCell id="eDjvxQ4qI4vpgXlW1Nu9-8" value="" style="edgeStyle=orthogonalEdgeStyle;rounded=0;orthogonalLoop=1;jettySize=auto;html=1;" edge="1" parent="1" source="eDjvxQ4qI4vpgXlW1Nu9-2" target="eDjvxQ4qI4vpgXlW1Nu9-7">
          <mxGeometry relative="1" as="geometry" />
        </mxCell>
        <mxCell id="eDjvxQ4qI4vpgXlW1Nu9-2" value="start menu" style="rounded=0;whiteSpace=wrap;html=1;" vertex="1" parent="1">
          <mxGeometry x="280" y="700" width="120" height="60" as="geometry" />
        </mxCell>
        <mxCell id="eDjvxQ4qI4vpgXlW1Nu9-10" value="" style="edgeStyle=orthogonalEdgeStyle;rounded=0;orthogonalLoop=1;jettySize=auto;html=1;" edge="1" parent="1" source="eDjvxQ4qI4vpgXlW1Nu9-3" target="eDjvxQ4qI4vpgXlW1Nu9-9">
          <mxGeometry relative="1" as="geometry" />
        </mxCell>
        <mxCell id="eDjvxQ4qI4vpgXlW1Nu9-12" value="" style="edgeStyle=orthogonalEdgeStyle;rounded=0;orthogonalLoop=1;jettySize=auto;html=1;" edge="1" parent="1" source="eDjvxQ4qI4vpgXlW1Nu9-3" target="eDjvxQ4qI4vpgXlW1Nu9-5">
          <mxGeometry relative="1" as="geometry" />
        </mxCell>
        <mxCell id="eDjvxQ4qI4vpgXlW1Nu9-14" value="" style="edgeStyle=orthogonalEdgeStyle;rounded=0;orthogonalLoop=1;jettySize=auto;html=1;" edge="1" parent="1" source="eDjvxQ4qI4vpgXlW1Nu9-3" target="eDjvxQ4qI4vpgXlW1Nu9-13">
          <mxGeometry relative="1" as="geometry" />
        </mxCell>
        <mxCell id="eDjvxQ4qI4vpgXlW1Nu9-3" value="start game" style="whiteSpace=wrap;html=1;rounded=0;" vertex="1" parent="1">
          <mxGeometry x="50" y="810" width="120" height="60" as="geometry" />
        </mxCell>
        <mxCell id="eDjvxQ4qI4vpgXlW1Nu9-16" value="" style="edgeStyle=orthogonalEdgeStyle;rounded=0;orthogonalLoop=1;jettySize=auto;html=1;" edge="1" parent="1" source="eDjvxQ4qI4vpgXlW1Nu9-5" target="eDjvxQ4qI4vpgXlW1Nu9-15">
          <mxGeometry relative="1" as="geometry" />
        </mxCell>
        <mxCell id="eDjvxQ4qI4vpgXlW1Nu9-18" style="edgeStyle=orthogonalEdgeStyle;rounded=0;orthogonalLoop=1;jettySize=auto;html=1;" edge="1" parent="1" source="eDjvxQ4qI4vpgXlW1Nu9-5" target="eDjvxQ4qI4vpgXlW1Nu9-17">
          <mxGeometry relative="1" as="geometry" />
        </mxCell>
        <mxCell id="eDjvxQ4qI4vpgXlW1Nu9-5" value="option" style="whiteSpace=wrap;html=1;rounded=0;" vertex="1" parent="1">
          <mxGeometry x="280" y="810" width="120" height="60" as="geometry" />
        </mxCell>
        <mxCell id="eDjvxQ4qI4vpgXlW1Nu9-7" value="end game" style="whiteSpace=wrap;html=1;rounded=0;" vertex="1" parent="1">
          <mxGeometry x="490" y="810" width="120" height="60" as="geometry" />
        </mxCell>
        <mxCell id="eDjvxQ4qI4vpgXlW1Nu9-9" value="难度选择" style="whiteSpace=wrap;html=1;rounded=0;" vertex="1" parent="1">
          <mxGeometry x="-70" y="920" width="120" height="60" as="geometry" />
        </mxCell>
        <mxCell id="eDjvxQ4qI4vpgXlW1Nu9-13" value="人数选择" style="whiteSpace=wrap;html=1;rounded=0;" vertex="1" parent="1">
          <mxGeometry x="100" y="920" width="120" height="60" as="geometry" />
        </mxCell>
        <mxCell id="eDjvxQ4qI4vpgXlW1Nu9-15" value="画面" style="whiteSpace=wrap;html=1;rounded=0;" vertex="1" parent="1">
          <mxGeometry x="260" y="920" width="120" height="60" as="geometry" />
        </mxCell>
        <mxCell id="eDjvxQ4qI4vpgXlW1Nu9-17" value="声音" style="rounded=0;whiteSpace=wrap;html=1;" vertex="1" parent="1">
          <mxGeometry x="280" y="1020" width="120" height="60" as="geometry" />
        </mxCell>
        <mxCell id="eDjvxQ4qI4vpgXlW1Nu9-20" style="edgeStyle=orthogonalEdgeStyle;rounded=0;orthogonalLoop=1;jettySize=auto;html=1;" edge="1" parent="1" source="eDjvxQ4qI4vpgXlW1Nu9-19" target="eDjvxQ4qI4vpgXlW1Nu9-2">
          <mxGeometry relative="1" as="geometry" />
        </mxCell>
        <mxCell id="eDjvxQ4qI4vpgXlW1Nu9-19" value="press enter to continue" style="rounded=0;whiteSpace=wrap;html=1;" vertex="1" parent="1">
          <mxGeometry x="280" y="620" width="120" height="60" as="geometry" />
        </mxCell>
      </root>
    </mxGraphModel>
  </diagram>
</mxfile>
